<?xml version="1.0" standalone="no"?>
<!DOCTYPE svg PUBLIC "-//W3C//DTD SVG 20010904//EN"
 "http://www.w3.org/TR/2001/REC-SVG-20010904/DTD/svg10.dtd">
<svg version="1.0" xmlns="http://www.w3.org/2000/svg"
 width="512.000000pt" height="512.000000pt" viewBox="0 0 512.000000 512.000000"
 preserveAspectRatio="xMidYMid meet">
<metadata>
Created by potrace 1.14, written by Peter Selinger 2001-2017
</metadata>
<g transform="translate(0.000000,512.000000) scale(0.100000,-0.100000)"
fill="#000000" stroke="none">
<path d="M3809 5116 c-2 -2 -27 -6 -55 -10 -115 -13 -278 -74 -404 -149 -156
-93 -308 -264 -399 -445 -37 -73 -88 -223 -95 -279 -12 -91 -16 -116 -20 -122
-2 -3 -398 -6 -879 -6 l-876 1 -373 373 c-205 205 -383 377 -396 382 -56 22
-122 -26 -122 -89 0 -34 16 -53 315 -352 l315 -315 -319 0 c-305 0 -320 -1
-341 -20 -60 -54 -47 -100 60 -212 232 -242 461 -482 490 -513 18 -19 108
-114 200 -210 92 -96 187 -195 210 -220 77 -82 363 -382 472 -494 l107 -111 1
-801 0 -802 -102 -95 c-57 -52 -116 -107 -133 -122 -160 -147 -221 -203 -307
-286 -99 -95 -100 -96 -94 -135 4 -21 16 -48 27 -59 19 -20 35 -20 988 -23
964 -2 968 -2 994 18 31 25 44 78 26 111 -14 27 -9 22 -113 114 -44 39 -94 84
-111 100 -17 17 -62 57 -100 90 -37 33 -73 65 -79 70 -6 6 -56 51 -111 100
-55 50 -107 96 -115 104 -12 12 -14 125 -15 808 0 437 3 799 6 805 4 6 130
136 280 290 151 154 330 339 400 410 l125 130 65 -42 c321 -208 711 -232 1055
-65 268 130 479 377 563 662 67 226 63 466 -14 684 -73 209 -219 403 -400 531
-135 96 -262 149 -440 184 -37 7 -280 16 -286 10z m271 -197 c337 -65 610
-319 701 -654 28 -102 35 -307 14 -410 -68 -344 -310 -606 -650 -706 -114 -33
-333 -34 -449 -1 -87 25 -204 76 -260 114 l-36 25 222 228 c467 477 448 456
448 498 0 41 -34 86 -67 88 -10 1 -232 3 -493 3 l-475 2 2 56 c3 62 42 198 81
273 104 207 282 366 505 449 37 14 70 25 72 25 3 0 19 2 35 6 100 22 250 24
350 4z m-465 -1146 l-144 -148 -1378 0 -1378 0 -44 45 c-177 183 -218 227
-225 238 -6 9 328 12 1653 12 l1660 0 -144 -147z m-335 -339 c0 -4 -76 -83
-168 -178 -93 -94 -257 -261 -365 -371 -182 -186 -230 -236 -409 -423 l-68
-70 0 -872 0 -872 48 -47 c26 -26 97 -91 157 -146 61 -54 128 -115 150 -135
22 -20 64 -57 93 -83 29 -26 49 -48 45 -48 -29 -4 -1363 -3 -1363 1 0 3 15 18
33 34 17 15 55 49 82 75 81 75 277 255 317 290 21 19 41 48 47 65 12 43 9
1726 -4 1747 -6 9 -82 92 -170 184 -88 92 -178 186 -200 210 -37 39 -312 327
-433 454 -30 31 -83 86 -119 124 l-65 67 1196 0 c658 0 1196 -3 1196 -6z"/>
<path d="M4036 4637 c-14 -14 -26 -32 -27 -39 0 -7 -2 -20 -4 -30 -6 -29 31
-75 72 -88 135 -44 247 -130 297 -228 14 -28 35 -88 45 -132 25 -102 53 -132
116 -123 66 10 88 59 69 153 -29 140 -99 267 -197 356 -74 67 -221 142 -295
151 -45 5 -53 3 -76 -20z"/>
</g>
</svg>
